<svg xmlns="http://www.w3.org/2000/svg" viewBox="0 0 113.452 80.18"><g transform="translate(0.5 0.5)"><path d="M97.467.05a14.839,14.839,0,0,1,13.028,21.935L86.237,70.494a14.839,14.839,0,0,1-26.989,0l-3.1-6.2L53.058,70.48a14.833,14.833,0,0,1-26.989.014L1.8,21.985a14.778,14.778,0,0,1-1.8-7.1H0A14.832,14.832,0,0,1,14.832.05Z" transform="translate(0 -0.015)" fill="#fff" stroke="#707070" stroke-width="1"/><path d="M136.795,21.928,112.537,70.444a14.839,14.839,0,0,1-26.989.014l-3.1-6.2L110.617,7.981A14.832,14.832,0,0,1,123.76,0h0a14.717,14.717,0,0,1,14.226,10.392A15.044,15.044,0,0,1,136.795,21.928Z" transform="translate(-26.301 0.001)" fill="#fff" stroke="#707070" stroke-width="1"/></g></svg>